<svg id="e621_logo" xmlns="http://www.w3.org/2000/svg" version="1.1" viewBox="0 0 1024 1024">
 <g id="logo">
  <g id="ehexagon">
   <path id="hexagon" d="m98.236 585.86 170.52-295.36h341.06l170.53 295.36-170.53 295.36h-341.06z" fill="#00549e"/>
   <path id="e" d="m384.11 583.8q28.362 25.799 66.023 23.431 37.661-2.3683 62.754-31.529l45.766 41.631q-41.631 48.381-104.8 52.353-63.174 3.9727-110.23-38.831-47.055-42.804-50.919-107.76-3.8639-64.953 37.767-113.33 41.631-48.381 104.8-52.353 63.174-3.9727 110.23 38.831 61.273 56.328 50.347 139.14l-235.69 14.821q8.4782 19.527 23.948 33.6zm120.9-140.5q-28.362-25.799-66.023-23.431-37.661 2.3683-62.754 31.529-14.22 17.193-19.787 36.35l172.51-10.849q-7.189-18.354-23.948-33.6z" fill="#f7f7f7"/>
  </g>
  <g id="ears" fill-rule="evenodd">
   <g id="left">
    <path id="lefttop" d="m440.76 130.5c13-19 44-68 74-68 37 0 45 86 46 140l-120-72z" fill="#fdbe2f"/>
    <path id="leftbot" d="m379.76 239.5 55-5c48-71 65-67 72 6l55 11c-0.33335-16.333-0.66667-32.667-0.99998-49-22-15-34-28-54-44-14-12-40-25-66-28-23 37-38 62-61 109z" fill="#fff"/>
   </g>
   <g id="right">
    <path id="righttop" d="m809.76 317.5c59-8 116-2 116 35 0 43-75 105-89 119-18-41-10-105-27-154z" fill="#fdbe2f"/>
    <path d="m697.76 342.5 37 38c77-5 103 12 45 65l28 51c13-11 18-15 29-25-12-34 10-37 10-81 0-19-3-40-37-73-29 3-63 9-112 25z" fill="#fff"/>
   </g>
  </g>
  <g fill-rule="evenodd" fill="#fff">
   <path d="m336 877.5h16v61h-16zm0-23h42v80c-11 36-57 36-68 0v-168c12-36 57-36 68 0v71h-25v-75h-17z"/>
   <path d="m396 810.5h26v-75h17v92h-43v106h68v-67h-25v44h-17v-60h42v-111c-10-35-57-36-68 0z"/>
   <path d="m525 960.5h-25v-198h-17v-23h17c19 5 25 21 25 29z"/>
  </g>
 </g>
</svg>
