<svg width="24" height="24" viewBox="0 0 24 24" fill="none" xmlns="http://www.w3.org/2000/svg">
<g clip-path="url(#clip0_0_3)">
<path d="M8.99023 12.5684H19.1855V25.8926C17.8379 26.3379 16.4375 26.6953 14.9844 26.9648C13.5312 27.2227 11.8848 27.3516 10.0449 27.3516C7.49023 27.3516 5.32227 26.8477 3.54102 25.8398C1.75977 24.832 0.40625 23.3438 -0.519531 21.375C-1.44531 19.4062 -1.9082 16.9863 -1.9082 14.1152C-1.9082 11.4199 -1.39258 9.08789 -0.361328 7.11914C0.681641 5.15039 2.19922 3.62695 4.19141 2.54883C6.19531 1.4707 8.63867 0.931641 11.5215 0.931641C12.8809 0.931641 14.2227 1.07812 15.5469 1.37109C16.8711 1.66406 18.0723 2.04492 19.1504 2.51367L17.3398 6.87305C16.5547 6.47461 15.6582 6.14062 14.6504 5.87109C13.6426 5.60156 12.5879 5.4668 11.4863 5.4668C9.9043 5.4668 8.52734 5.83008 7.35547 6.55664C6.19531 7.2832 5.29297 8.30273 4.64844 9.61523C4.01562 10.916 3.69922 12.4512 3.69922 14.2207C3.69922 15.8965 3.92773 17.3848 4.38477 18.6855C4.8418 19.9746 5.5625 20.9883 6.54688 21.7266C7.53125 22.4531 8.81445 22.8164 10.3965 22.8164C11.1699 22.8164 11.8203 22.7812 12.3477 22.7109C12.8867 22.6289 13.3906 22.5469 13.8594 22.4648V17.1035H8.99023V12.5684Z" fill="white"/>
</g>
<defs>
<clipPath id="clip0_0_3">
<rect width="24" height="24" fill="white"/>
</clipPath>
</defs>
</svg>
