<svg width="255" height="255" viewBox="0 0 255 255" fill="none" xmlns="http://www.w3.org/2000/svg">
<rect x="56" y="63" width="198.667" height="192" fill="currentColor" fill-opacity="0.533333"/>
<rect width="197.333" height="193.333" fill="currentColor" fill-opacity="0.6"/>
<rect x="29" y="31" width="198.667" height="192" fill="currentColor"/>
<path d="M128 175.273C121.152 175.273 115.318 173.409 110.5 169.682C105.682 165.924 102 160.485 99.4545 153.364C96.9091 146.212 95.6364 137.576 95.6364 127.455C95.6364 117.394 96.9091 108.803 99.4545 101.682C102.03 94.5303 105.727 89.0758 110.545 85.3182C115.394 81.5303 121.212 79.6364 128 79.6364C134.788 79.6364 140.591 81.5303 145.409 85.3182C150.258 89.0758 153.955 94.5303 156.5 101.682C159.076 108.803 160.364 117.394 160.364 127.455C160.364 137.576 159.091 146.212 156.545 153.364C154 160.485 150.318 165.924 145.5 169.682C140.682 173.409 134.848 175.273 128 175.273ZM128 165.273C134.788 165.273 140.061 162 143.818 155.455C147.576 148.909 149.455 139.576 149.455 127.455C149.455 119.394 148.591 112.53 146.864 106.864C145.167 101.197 142.712 96.8788 139.5 93.9091C136.318 90.9394 132.485 89.4545 128 89.4545C121.273 89.4545 116.015 92.7727 112.227 99.4091C108.439 106.015 106.545 115.364 106.545 127.455C106.545 135.515 107.394 142.364 109.091 148C110.788 153.636 113.227 157.924 116.409 160.864C119.621 163.803 123.485 165.273 128 165.273Z" fill="white"/>
</svg>
