<svg width="259" height="255" viewBox="0 0 259 255" fill="none" xmlns="http://www.w3.org/2000/svg">
<rect x="60" y="60.3333" width="198.667" height="192" fill="currentColor" fill-opacity="0.533333"/>
<rect x="33" y="3" width="197.333" height="193.333" fill="currentColor" fill-opacity="0.6"/>
<rect y="26" width="198.667" height="192" fill="currentColor"/>
<path d="M63.6364 168V159.818L94.3636 126.182C97.9697 122.242 100.939 118.818 103.273 115.909C105.606 112.97 107.333 110.212 108.455 107.636C109.606 105.03 110.182 102.303 110.182 99.4545C110.182 96.1818 109.394 93.3485 107.818 90.9545C106.273 88.5606 104.152 86.7121 101.455 85.4091C98.7576 84.1061 95.7273 83.4545 92.3636 83.4545C88.7879 83.4545 85.6667 84.197 83 85.6818C80.3636 87.1364 78.3182 89.1818 76.8636 91.8182C75.4394 94.4545 74.7273 97.5455 74.7273 101.091H64C64 95.6364 65.2576 90.8485 67.7727 86.7273C70.2879 82.6061 73.7121 79.3939 78.0455 77.0909C82.4091 74.7879 87.303 73.6364 92.7273 73.6364C98.1818 73.6364 103.015 74.7879 107.227 77.0909C111.439 79.3939 114.742 82.5 117.136 86.4091C119.53 90.3182 120.727 94.6667 120.727 99.4545C120.727 102.879 120.106 106.227 118.864 109.5C117.652 112.742 115.53 116.364 112.5 120.364C109.5 124.333 105.333 129.182 100 134.909L79.0909 157.273V158H122.364V168H63.6364Z" fill="white"/>
</svg>
