<svg width="258" height="255" viewBox="0 0 258 255" fill="none" xmlns="http://www.w3.org/2000/svg">
<rect x="29" y="63" width="198.667" height="192" fill="currentColor" fill-opacity="0.533333"/>
<rect y="31" width="197.333" height="193.333" fill="currentColor" fill-opacity="0.6"/>
<rect x="59" width="198.667" height="192" fill="currentColor"/>
<path d="M158.091 143.273C152.091 143.273 146.742 142.242 142.045 140.182C137.379 138.121 133.667 135.258 130.909 131.591C128.182 127.894 126.697 123.606 126.455 118.727H137.909C138.152 121.727 139.182 124.318 141 126.5C142.818 128.652 145.197 130.318 148.136 131.5C151.076 132.682 154.333 133.273 157.909 133.273C161.909 133.273 165.455 132.576 168.545 131.182C171.636 129.788 174.061 127.848 175.818 125.364C177.576 122.879 178.455 120 178.455 116.727C178.455 113.303 177.606 110.288 175.909 107.682C174.212 105.045 171.727 102.985 168.455 101.5C165.182 100.015 161.182 99.2727 156.455 99.2727H149V89.2727H156.455C160.152 89.2727 163.394 88.6061 166.182 87.2727C169 85.9394 171.197 84.0606 172.773 81.6364C174.379 79.2121 175.182 76.3636 175.182 73.0909C175.182 69.9394 174.485 67.197 173.091 64.8636C171.697 62.5303 169.727 60.7121 167.182 59.4091C164.667 58.1061 161.697 57.4545 158.273 57.4545C155.061 57.4545 152.03 58.0455 149.182 59.2273C146.364 60.3788 144.061 62.0606 142.273 64.2727C140.485 66.4545 139.515 69.0909 139.364 72.1818H128.455C128.636 67.303 130.106 63.0303 132.864 59.3636C135.621 55.6667 139.227 52.7879 143.682 50.7273C148.167 48.6667 153.091 47.6364 158.455 47.6364C164.212 47.6364 169.152 48.803 173.273 51.1364C177.394 53.4394 180.561 56.4848 182.773 60.2727C184.985 64.0606 186.091 68.1515 186.091 72.5455C186.091 77.7879 184.712 82.2576 181.955 85.9545C179.227 89.6515 175.515 92.2121 170.818 93.6364V94.3636C176.697 95.3333 181.288 97.8333 184.591 101.864C187.894 105.864 189.545 110.818 189.545 116.727C189.545 121.788 188.167 126.333 185.409 130.364C182.682 134.364 178.955 137.515 174.227 139.818C169.5 142.121 164.121 143.273 158.091 143.273Z" fill="white"/>
</svg>
