<svg width="255" height="255" viewBox="0 0 255 255" fill="none" xmlns="http://www.w3.org/2000/svg">
<rect x="56" y="63" width="198.667" height="192" fill="currentColor" fill-opacity="0.533333"/>
<rect y="31" width="197.333" height="193.333" fill="currentColor" fill-opacity="0.6"/>
<rect x="29" width="198.667" height="192" fill="currentColor"/>
<path d="M125.727 143.273C120.394 143.273 115.591 142.212 111.318 140.091C107.045 137.97 103.621 135.061 101.045 131.364C98.4697 127.667 97.0606 123.455 96.8182 118.727H107.727C108.152 122.939 110.061 126.424 113.455 129.182C116.879 131.909 120.97 133.273 125.727 133.273C129.545 133.273 132.939 132.379 135.909 130.591C138.909 128.803 141.258 126.348 142.955 123.227C144.682 120.076 145.545 116.515 145.545 112.545C145.545 108.485 144.652 104.864 142.864 101.682C141.106 98.4697 138.682 95.9394 135.591 94.0909C132.5 92.2424 128.97 91.303 125 91.2727C122.152 91.2424 119.227 91.6818 116.227 92.5909C113.227 93.4697 110.758 94.6061 108.818 96L98.2727 94.7273L103.909 48.9091H152.273V58.9091H113.364L110.091 86.3636H110.636C112.545 84.8485 114.939 83.5909 117.818 82.5909C120.697 81.5909 123.697 81.0909 126.818 81.0909C132.515 81.0909 137.591 82.4545 142.045 85.1818C146.53 87.8788 150.045 91.5758 152.591 96.2727C155.167 100.97 156.455 106.333 156.455 112.364C156.455 118.303 155.121 123.606 152.455 128.273C149.818 132.909 146.182 136.576 141.545 139.273C136.909 141.939 131.636 143.273 125.727 143.273Z" fill="white"/>
</svg>
