<svg width="256" height="258" viewBox="0 0 256 258" fill="none" xmlns="http://www.w3.org/2000/svg">
<rect x="29" y="66" width="198.667" height="192" fill="currentColor" fill-opacity="0.533333"/>
<rect x="58" width="197.333" height="193.333" fill="currentColor" fill-opacity="0.6"/>
<rect y="28" width="198.667" height="192" fill="currentColor"/>
<path d="M99.5455 175.273C95.7273 175.212 91.9091 174.485 88.0909 173.091C84.2727 171.697 80.7879 169.348 77.6364 166.045C74.4848 162.712 71.9545 158.212 70.0455 152.545C68.1364 146.848 67.1818 139.697 67.1818 131.091C67.1818 122.848 67.9545 115.545 69.5 109.182C71.0455 102.788 73.2879 97.4091 76.2273 93.0455C79.1667 88.6515 82.7121 85.3182 86.8636 83.0454C91.0455 80.7727 95.7576 79.6364 101 79.6364C106.212 79.6364 110.848 80.6818 114.909 82.7727C119 84.8333 122.333 87.7121 124.909 91.4091C127.485 95.1061 129.152 99.3636 129.909 104.182H118.818C117.788 100 115.788 96.5303 112.818 93.7727C109.848 91.0151 105.909 89.6364 101 89.6364C93.7879 89.6364 88.1061 92.7727 83.9545 99.0455C79.8333 105.318 77.7576 114.121 77.7273 125.455H78.4545C80.1515 122.879 82.1667 120.682 84.5 118.864C86.8636 117.015 89.4697 115.591 92.3182 114.591C95.1667 113.591 98.1818 113.091 101.364 113.091C106.697 113.091 111.576 114.424 116 117.091C120.424 119.727 123.97 123.379 126.636 128.045C129.303 132.682 130.636 138 130.636 144C130.636 149.758 129.348 155.03 126.773 159.818C124.197 164.576 120.576 168.364 115.909 171.182C111.273 173.97 105.818 175.333 99.5455 175.273ZM99.5455 165.273C103.364 165.273 106.788 164.318 109.818 162.409C112.879 160.5 115.288 157.939 117.045 154.727C118.833 151.515 119.727 147.939 119.727 144C119.727 140.152 118.864 136.652 117.136 133.5C115.439 130.318 113.091 127.788 110.091 125.909C107.121 124.03 103.727 123.091 99.9091 123.091C97.0303 123.091 94.3485 123.667 91.8636 124.818C89.3788 125.939 87.197 127.485 85.3182 129.455C83.4697 131.424 82.0152 133.682 80.9545 136.227C79.8939 138.742 79.3636 141.394 79.3636 144.182C79.3636 147.879 80.2273 151.333 81.9545 154.545C83.7121 157.758 86.1061 160.348 89.1364 162.318C92.197 164.288 95.6667 165.273 99.5455 165.273Z" fill="white"/>
</svg>
