<svg width="255" height="256" viewBox="0 0 255 256" fill="none" xmlns="http://www.w3.org/2000/svg">
<rect x="29" y="64" width="198.667" height="192" fill="currentColor" fill-opacity="0.533333"/>
<rect y="32" width="197.333" height="193.333" fill="currentColor" fill-opacity="0.6"/>
<rect x="56" width="198.667" height="192" fill="currentColor"/>
<path d="M157.455 143.273C151.212 143.273 145.697 142.167 140.909 139.955C136.152 137.712 132.439 134.636 129.773 130.727C127.106 126.788 125.788 122.303 125.818 117.273C125.788 113.333 126.561 109.697 128.136 106.364C129.712 103 131.864 100.197 134.591 97.9545C137.348 95.6818 140.424 94.2424 143.818 93.6364V93.0909C139.364 91.9394 135.818 89.4394 133.182 85.5909C130.545 81.7121 129.242 77.303 129.273 72.3636C129.242 67.6364 130.439 63.4091 132.864 59.6818C135.288 55.9545 138.621 53.0151 142.864 50.8636C147.136 48.7121 152 47.6364 157.455 47.6364C162.848 47.6364 167.667 48.7121 171.909 50.8636C176.152 53.0151 179.485 55.9545 181.909 59.6818C184.364 63.4091 185.606 67.6364 185.636 72.3636C185.606 77.303 184.258 81.7121 181.591 85.5909C178.955 89.4394 175.455 91.9394 171.091 93.0909V93.6364C174.455 94.2424 177.485 95.6818 180.182 97.9545C182.879 100.197 185.03 103 186.636 106.364C188.242 109.697 189.061 113.333 189.091 117.273C189.061 122.303 187.697 126.788 185 130.727C182.333 134.636 178.621 137.712 173.864 139.955C169.136 142.167 163.667 143.273 157.455 143.273ZM157.455 133.273C161.667 133.273 165.303 132.591 168.364 131.227C171.424 129.864 173.788 127.939 175.455 125.455C177.121 122.97 177.97 120.061 178 116.727C177.97 113.212 177.061 110.106 175.273 107.409C173.485 104.712 171.045 102.591 167.955 101.045C164.894 99.5 161.394 98.7273 157.455 98.7273C153.485 98.7273 149.939 99.5 146.818 101.045C143.727 102.591 141.288 104.712 139.5 107.409C137.742 110.106 136.879 113.212 136.909 116.727C136.879 120.061 137.682 122.97 139.318 125.455C140.985 127.939 143.364 129.864 146.455 131.227C149.545 132.591 153.212 133.273 157.455 133.273ZM157.455 89.0909C160.788 89.0909 163.742 88.4242 166.318 87.0909C168.924 85.7576 170.97 83.8939 172.455 81.5C173.939 79.1061 174.697 76.303 174.727 73.0909C174.697 69.9394 173.955 67.197 172.5 64.8636C171.045 62.5 169.03 60.6818 166.455 59.4091C163.879 58.1061 160.879 57.4545 157.455 57.4545C153.97 57.4545 150.924 58.1061 148.318 59.4091C145.712 60.6818 143.697 62.5 142.273 64.8636C140.848 67.197 140.152 69.9394 140.182 73.0909C140.152 76.303 140.864 79.1061 142.318 81.5C143.803 83.8939 145.848 85.7576 148.455 87.0909C151.061 88.4242 154.061 89.0909 157.455 89.0909Z" fill="white"/>
</svg>
