<svg width="258" height="255" viewBox="0 0 258 255" fill="none" xmlns="http://www.w3.org/2000/svg">
<rect x="59" y="32" width="198.667" height="192" fill="currentColor" fill-opacity="0.533333"/>
<rect x="30" width="197.333" height="193.333" fill="currentColor" fill-opacity="0.6"/>
<rect y="63" width="198.667" height="192" fill="currentColor"/>
<path d="M98.2727 110.636C102.091 110.667 105.909 111.394 109.727 112.818C113.545 114.242 117.03 116.606 120.182 119.909C123.333 123.182 125.864 127.652 127.773 133.318C129.682 138.985 130.636 146.091 130.636 154.636C130.636 162.909 129.848 170.258 128.273 176.682C126.727 183.076 124.485 188.47 121.545 192.864C118.636 197.258 115.091 200.591 110.909 202.864C106.758 205.136 102.061 206.273 96.8182 206.273C91.6061 206.273 86.9545 205.242 82.8636 203.182C78.803 201.091 75.4697 198.197 72.8636 194.5C70.2879 190.773 68.6364 186.455 67.9091 181.545H79C80 185.818 81.9848 189.348 84.9545 192.136C87.9545 194.894 91.9091 196.273 96.8182 196.273C104 196.273 109.667 193.136 113.818 186.864C118 180.591 120.091 171.727 120.091 160.273H119.364C117.667 162.818 115.652 165.015 113.318 166.864C110.985 168.712 108.394 170.136 105.545 171.136C102.697 172.136 99.6667 172.636 96.4545 172.636C91.1212 172.636 86.2273 171.318 81.7727 168.682C77.3485 166.015 73.803 162.364 71.1364 157.727C68.5 153.061 67.1818 147.727 67.1818 141.727C67.1818 136.03 68.4545 130.818 71 126.091C73.5758 121.333 77.1818 117.545 81.8182 114.727C86.4848 111.909 91.9697 110.545 98.2727 110.636ZM98.2727 120.636C94.4545 120.636 91.0152 121.591 87.9545 123.5C84.9242 125.379 82.5152 127.924 80.7273 131.136C78.9697 134.318 78.0909 137.848 78.0909 141.727C78.0909 145.606 78.9394 149.136 80.6364 152.318C82.3636 155.47 84.7121 157.985 87.6818 159.864C90.6818 161.712 94.0909 162.636 97.9091 162.636C100.788 162.636 103.47 162.076 105.955 160.955C108.439 159.803 110.606 158.242 112.455 156.273C114.333 154.273 115.803 152.015 116.864 149.5C117.924 146.955 118.455 144.303 118.455 141.545C118.455 137.909 117.576 134.5 115.818 131.318C114.091 128.136 111.697 125.561 108.636 123.591C105.606 121.621 102.152 120.636 98.2727 120.636Z" fill="white"/>
</svg>
